<svg xmlns="http://www.w3.org/2000/svg" xmlns:xlink="http://www.w3.org/1999/xlink" viewBox="0 0 68.208 42.208" fill="#fff" fill-rule="evenodd" stroke="#000" stroke-linecap="round" stroke-linejoin="round"><use xlink:href="#A" x="1.604" y="1.604"/><symbol id="A" overflow="visible"><g stroke="none" fill-rule="nonzero"><path d="M7.793 38.342c-2.836-.005-5.446-1.547-6.818-4.028s-1.291-5.512.213-7.916L15.23 3.94C16.71 1.577 19.338.183 22.124.283s5.307 1.679 6.614 4.142 1.2 5.436-.28 7.799L14.412 34.681c-1.427 2.28-3.929 3.664-6.619 3.661z" fill="#ff3d57"/><path d="M31.993 38.342c-2.838 0-5.452-1.54-6.828-4.022s-1.295-5.516.209-7.922L39.427 3.939c1.419-2.49 4.089-4.002 6.955-3.937s5.465 1.695 6.77 4.246 1.107 5.613-.517 7.975L38.609 34.681c-1.427 2.28-3.929 3.664-6.619 3.661z" fill="#ffcb00"/><path d="M48.371 30.719c0-4.221 3.486-7.62 7.815-7.62s7.815 3.398 7.815 7.62-3.486 7.62-7.815 7.62-7.815-3.398-7.815-7.62z" fill="#00d647"/></g></symbol></svg>